<?xml version="1.0" encoding="UTF-8" standalone="no"?>
<!DOCTYPE svg PUBLIC "-//W3C//DTD SVG 1.1//EN" "http://www.w3.org/Graphics/SVG/1.1/DTD/svg11.dtd">
<svg xmlns:dc="http://purl.org/dc/elements/1.1/" xmlns="http://www.w3.org/2000/svg" xmlns:xl="http://www.w3.org/1999/xlink" version="1.1" viewBox="0 0 100 100" width="100" height="100">
  <defs/>
  <metadata> Produced by OmniGraffle 7.19.4\n2022-02-22 00:14:51 +0000</metadata>
  <g id="party-icon--independent" fill-opacity="1" stroke="none" fill="none" stroke-opacity="1" stroke-dasharray="none">
    <title>independent</title>
    <g id="independent_party-icon">
      <title>party-icon</title>
      <g id="Graphic_148">
        <path d="M 29.629774 67.113996 L 22.599462 93.35148 L 23.71283 93.6498 L 29.91309 89.73424 L 35.184207 70.06216 C 33.261907 69.25205 31.401976 68.268215 29.629774 67.113996 Z M 35.184207 70.06216 L 29.91309 89.73424 L 33.7314 87.32292 L 39.244288 97.81144 L 40.357657 98.10977 L 47.13803 72.80507 C 43.040165 72.588955 38.989957 71.66602 35.184207 70.06216 Z M 50.840883 72.80766 L 57.620564 98.10977 L 58.73393 97.81144 L 64.24682 87.32292 L 74.26539 93.6498 L 75.37876 93.35148 L 68.34628 67.105895 C 62.95969 70.6229 56.91284 72.495616 50.840883 72.80766 Z" fill="#373151"/>
        <path d="M 29.629774 67.113996 L 22.599462 93.35148 L 23.71283 93.6498 L 29.91309 89.73424 L 35.184207 70.06216 C 33.261907 69.25205 31.401976 68.268215 29.629774 67.113996 Z M 35.184207 70.06216 L 29.91309 89.73424 L 33.7314 87.32292 L 39.244288 97.81144 L 40.357657 98.10977 L 47.13803 72.80507 C 43.040165 72.588955 38.989957 71.66602 35.184207 70.06216 Z M 50.840883 72.80766 L 57.620564 98.10977 L 58.73393 97.81144 L 64.24682 87.32292 L 74.26539 93.6498 L 75.37876 93.35148 L 68.34628 67.105895 C 62.95969 70.6229 56.91284 72.495616 50.840883 72.80766 Z" stroke="#e9e6e5" stroke-linecap="square" stroke-linejoin="miter" stroke-width="0"/>
      </g>
      <g id="Graphic_144">
        <path d="M 75.65302 16.929195 C 64.35331 2.203055 43.25526 -.5745564 28.529178 10.725224 C 13.803037 22.02493 11.025426 43.12298 22.325207 57.849064 C 33.62491 72.575205 54.722964 75.35282 69.44905 64.053036 C 84.17519 52.75333 86.9528 31.655278 75.65302 16.929195 M 64.61751 25.397033 C 71.2406 34.02837 69.61257 46.39448 60.981204 53.01753 C 52.34987 59.64062 39.983756 58.01259 33.36071 49.38122 C 26.737616 40.749885 28.365646 28.383774 36.997016 21.760726 C 45.62835 15.137634 57.99446 16.765663 64.61751 25.397033" fill="#373151"/>
        <path d="M 75.65302 16.929195 C 64.35331 2.203055 43.25526 -.5745564 28.529178 10.725224 C 13.803037 22.02493 11.025426 43.12298 22.325207 57.849064 C 33.62491 72.575205 54.722964 75.35282 69.44905 64.053036 C 84.17519 52.75333 86.9528 31.655278 75.65302 16.929195 M 64.61751 25.397033 C 71.2406 34.02837 69.61257 46.39448 60.981204 53.01753 C 52.34987 59.64062 39.983756 58.01259 33.36071 49.38122 C 26.737616 40.749885 28.365646 28.383774 36.997016 21.760726 C 45.62835 15.137634 57.99446 16.765663 64.61751 25.397033" stroke="#e9e6e5" stroke-linecap="square" stroke-linejoin="miter" stroke-width="0"/>
      </g>
    </g>
  </g>
</svg>
