<?xml version="1.0" encoding="UTF-8" standalone="no"?>
<!DOCTYPE svg PUBLIC "-//W3C//DTD SVG 1.1//EN" "http://www.w3.org/Graphics/SVG/1.1/DTD/svg11.dtd">
<svg xmlns:dc="http://purl.org/dc/elements/1.1/" xmlns="http://www.w3.org/2000/svg" xmlns:xl="http://www.w3.org/1999/xlink" version="1.1" viewBox="0 0 1e3 1e3" width="1000" height="1000">
  <defs/>
  <metadata> Produced by OmniGraffle 7.19.4\n2022-02-21 23:52:23 +0000</metadata>
  <g id="rosette" fill-opacity="1" stroke="none" fill="none" stroke-opacity="1" stroke-dasharray="none">
    <title>rosette</title>
    <g id="rosette_colour">
      <title>colour</title>
      <g id="Group_162">
        <g id="Group_159">
          <g id="Graphic_129">
            <path d="M 522.8608 321.55528 L 584.301 338.01813 L 410.41013 986.9876 L 348.96995 970.5247 Z" fill="#fccf1f"/>
            <path d="M 522.8608 321.55528 L 584.301 338.01813 L 410.41013 986.9876 L 348.96995 970.5247 Z" stroke="#373151" stroke-linecap="square" stroke-linejoin="miter" stroke-width="17.26561"/>
          </g>
          <g id="Graphic_128">
            <path d="M 461.4206 305.09243 L 522.8608 321.55528 L 348.96995 970.5247 L 287.52977 954.0619 Z" fill="#ff7201"/>
            <path d="M 461.4206 305.09243 L 522.8608 321.55528 L 348.96995 970.5247 L 287.52977 954.0619 Z" stroke="#373151" stroke-linecap="square" stroke-linejoin="miter" stroke-width="17.26561"/>
          </g>
          <g id="Graphic_127">
            <path d="M 399.98043 288.6296 L 461.4206 305.09243 L 287.52977 954.0619 L 226.08958 937.599 Z" fill="#de2d32"/>
            <path d="M 399.98043 288.6296 L 461.4206 305.09243 L 287.52977 954.0619 L 226.08958 937.599 Z" stroke="#373151" stroke-linecap="square" stroke-linejoin="miter" stroke-width="17.26561"/>
          </g>
          <g id="Graphic_156">
            <path d="M 400.8292 987.6491 L 341.6331 875.0258 L 234.0562 942.9624 Z" fill="#373151"/>
            <path d="M 400.8292 987.6491 L 341.6331 875.0258 L 234.0562 942.9624 Z" stroke="#373151" stroke-linecap="square" stroke-linejoin="miter" stroke-width="17.26561"/>
          </g>
        </g>
        <g id="Group_158">
          <g id="Graphic_124">
            <path d="M 538.5794 305.09243 L 600.0196 288.6296 L 773.9104 937.599 L 712.4702 954.0619 Z" fill="#b81ddd"/>
            <path d="M 538.5794 305.09243 L 600.0196 288.6296 L 773.9104 937.599 L 712.4702 954.0619 Z" stroke="#373151" stroke-linecap="square" stroke-linejoin="miter" stroke-width="17.26561"/>
          </g>
          <g id="Graphic_125">
            <path d="M 477.1392 321.55528 L 538.5794 305.09243 L 712.4702 954.0619 L 651.03005 970.5247 Z" fill="#0778ff"/>
            <path d="M 477.1392 321.55528 L 538.5794 305.09243 L 712.4702 954.0619 L 651.03005 970.5247 Z" stroke="#373151" stroke-linecap="square" stroke-linejoin="miter" stroke-width="17.26561"/>
          </g>
          <g id="Graphic_126">
            <path d="M 415.699 338.01813 L 477.1392 321.55528 L 651.03005 970.5247 L 589.5899 986.9876 Z" fill="#00ba5d"/>
            <path d="M 415.699 338.01813 L 477.1392 321.55528 L 651.03005 970.5247 L 589.5899 986.9876 Z" stroke="#373151" stroke-linecap="square" stroke-linejoin="miter" stroke-width="17.26561"/>
          </g>
          <g id="Graphic_157">
            <path d="M 765.9438 942.9624 L 658.3669 875.0258 L 599.1708 987.6491 Z" fill="#373151"/>
            <path d="M 765.9438 942.9624 L 658.3669 875.0258 L 599.1708 987.6491 Z" stroke="#373151" stroke-linecap="square" stroke-linejoin="miter" stroke-width="17.26561"/>
          </g>
        </g>
        <g id="Group_161">
          <g id="Graphic_96">
            <path d="M 500 356.73965 L 454.9277 14.381627 C 515.0241 6.469787 576.14435 14.516421 632.1453 37.71276 L 500 356.73965 Z" fill="#de2d32"/>
            <path d="M 500 356.73965 L 454.9277 14.381627 C 515.0241 6.469787 576.14435 14.516421 632.1453 37.71276 L 500 356.73965 Z" stroke="#373151" stroke-linecap="square" stroke-linejoin="miter" stroke-width="17.26561"/>
          </g>
          <g id="Graphic_108">
            <path d="M 500 356.73965 L 632.1453 37.71276 C 688.1462 60.9091 737.0546 98.43782 773.9546 146.5269 L 500 356.73965 Z" fill="#ff7201"/>
            <path d="M 500 356.73965 L 632.1453 37.71276 C 688.1462 60.9091 737.0546 98.43782 773.9546 146.5269 L 500 356.73965 Z" stroke="#373151" stroke-linecap="square" stroke-linejoin="miter" stroke-width="17.26561"/>
          </g>
          <g id="Graphic_110">
            <path d="M 500 356.73965 L 773.9546 146.5269 C 810.85465 194.61597 834.4462 251.57098 842.358 311.66736 L 500 356.73965 Z" fill="#fccf1f"/>
            <path d="M 500 356.73965 L 773.9546 146.5269 C 810.85465 194.61597 834.4462 251.57098 842.358 311.66736 L 500 356.73965 Z" stroke="#373151" stroke-linecap="square" stroke-linejoin="miter" stroke-width="17.26561"/>
          </g>
          <g id="Graphic_111">
            <path d="M 500 356.73965 L 289.78724 82.78505 C 337.8763 45.885003 394.83133 22.293466 454.9277 14.381627 L 500 356.73965 Z" fill="#b81ddd"/>
            <path d="M 500 356.73965 L 289.78724 82.78505 C 337.8763 45.885003 394.83133 22.293466 454.9277 14.381627 L 500 356.73965 Z" stroke="#373151" stroke-linecap="square" stroke-linejoin="miter" stroke-width="17.26561"/>
          </g>
          <g id="Graphic_112">
            <path d="M 500 356.73965 L 180.9731 224.5944 C 204.16945 168.59347 241.69816 119.6851 289.78724 82.78505 L 500 356.73965 Z" fill="#0778ff"/>
            <path d="M 500 356.73965 L 180.9731 224.5944 C 204.16945 168.59347 241.69816 119.6851 289.78724 82.78505 L 500 356.73965 Z" stroke="#373151" stroke-linecap="square" stroke-linejoin="miter" stroke-width="17.26561"/>
          </g>
          <g id="Graphic_114">
            <path d="M 500 356.73965 L 842.358 311.66736 C 850.2699 371.76375 842.2232 432.884 819.0269 488.8849 L 500 356.73965 Z" fill="#00ba5d"/>
            <path d="M 500 356.73965 L 842.358 311.66736 C 850.2699 371.76375 842.2232 432.884 819.0269 488.8849 L 500 356.73965 Z" stroke="#373151" stroke-linecap="square" stroke-linejoin="miter" stroke-width="17.26561"/>
          </g>
          <g id="Graphic_115">
            <path d="M 500 356.73965 L 157.64197 401.81194 C 149.73014 341.71556 157.77677 280.5953 180.9731 224.5944 L 500 356.73965 Z" fill="#00ba5d"/>
            <path d="M 500 356.73965 L 157.64197 401.81194 C 149.73014 341.71556 157.77677 280.5953 180.9731 224.5944 L 500 356.73965 Z" stroke="#373151" stroke-linecap="square" stroke-linejoin="miter" stroke-width="17.26561"/>
          </g>
          <g id="Graphic_116">
            <path d="M 500 356.73965 L 226.0454 566.9524 C 189.14535 518.86334 165.55381 461.9083 157.64197 401.81194 L 500 356.73965 Z" fill="#fccf1f"/>
            <path d="M 500 356.73965 L 226.0454 566.9524 C 189.14535 518.86334 165.55381 461.9083 157.64197 401.81194 L 500 356.73965 Z" stroke="#373151" stroke-linecap="square" stroke-linejoin="miter" stroke-width="17.26561"/>
          </g>
          <g id="Graphic_118">
            <path d="M 500 356.73965 L 367.85473 675.76654 C 311.8538 652.5702 262.94544 615.0415 226.0454 566.9524 L 500 356.73965 Z" fill="#ff7201"/>
            <path d="M 500 356.73965 L 367.85473 675.76654 C 311.8538 652.5702 262.94544 615.0415 226.0454 566.9524 L 500 356.73965 Z" stroke="#373151" stroke-linecap="square" stroke-linejoin="miter" stroke-width="17.26561"/>
          </g>
          <g id="Graphic_119">
            <path d="M 500 356.73965 L 819.0269 488.8849 C 795.8306 544.88583 758.3018 593.7942 710.2128 630.69426 L 500 356.73965 Z" fill="#0778ff"/>
            <path d="M 500 356.73965 L 819.0269 488.8849 C 795.8306 544.88583 758.3018 593.7942 710.2128 630.69426 L 500 356.73965 Z" stroke="#373151" stroke-linecap="square" stroke-linejoin="miter" stroke-width="17.26561"/>
          </g>
          <g id="Graphic_120">
            <path d="M 500 356.73965 L 710.2128 630.69426 C 662.1237 667.5943 605.1687 691.1858 545.0723 699.0977 L 500 356.73965 Z" fill="#b81ddd"/>
            <path d="M 500 356.73965 L 710.2128 630.69426 C 662.1237 667.5943 605.1687 691.1858 545.0723 699.0977 L 500 356.73965 Z" stroke="#373151" stroke-linecap="square" stroke-linejoin="miter" stroke-width="17.26561"/>
          </g>
          <g id="Graphic_121">
            <path d="M 500 356.73965 L 545.0723 699.0977 C 484.9759 707.0095 423.85565 698.9629 367.85473 675.76654 L 500 356.73965 Z" fill="#de2d32"/>
            <path d="M 500 356.73965 L 545.0723 699.0977 C 484.9759 707.0095 423.85565 698.9629 367.85473 675.76654 L 500 356.73965 Z" stroke="#373151" stroke-linecap="square" stroke-linejoin="miter" stroke-width="17.26561"/>
          </g>
          <g id="Graphic_122">
            <path d="M 671.2214 225.35682 C 743.7826 319.9199 725.9463 455.4004 631.3828 527.9611 C 536.81975 600.5223 401.33927 582.6859 328.77856 488.1225 C 256.21738 393.5594 274.05372 258.07892 368.61717 185.51821 C 463.18025 112.95703 598.6607 130.79337 671.2214 225.35682" fill="#373151"/>
            <path d="M 671.2214 225.35682 C 743.7826 319.9199 725.9463 455.4004 631.3828 527.9611 C 536.81975 600.5223 401.33927 582.6859 328.77856 488.1225 C 256.21738 393.5594 274.05372 258.07892 368.61717 185.51821 C 463.18025 112.95703 598.6607 130.79337 671.2214 225.35682" stroke="#373151" stroke-linecap="square" stroke-linejoin="miter" stroke-width="17.26561"/>
          </g>
        </g>
      </g>
    </g>
  </g>
</svg>
