<?xml version="1.0" encoding="UTF-8" standalone="no"?>
<!DOCTYPE svg PUBLIC "-//W3C//DTD SVG 1.1//EN" "http://www.w3.org/Graphics/SVG/1.1/DTD/svg11.dtd">
<svg xmlns:dc="http://purl.org/dc/elements/1.1/" xmlns="http://www.w3.org/2000/svg" xmlns:xl="http://www.w3.org/1999/xlink" version="1.1" viewBox="0 0 16 16" width="16" height="16">
  <defs/>
  <metadata> Produced by OmniGraffle 7.19.4\n2022-02-22 00:02:37 +0000</metadata>
  <g id="favicon-pinned-svg" fill-opacity="1" stroke="none" fill="none" stroke-opacity="1" stroke-dasharray="none">
    <title>favicon-pinned-svg</title>
    <g id="favicon-pinned-svg_Layer_1">
      <title>Layer 1</title>
      <g id="Graphic_139">
        <path d="M 10.121318 5.878682 L 12.917562 3.082438 C 11.160686 1.3255625 8.599984 .6394245 6.2000474 1.2824856 L 7.223413 5.101739 C 8.224191 4.834582 9.336203 5.093563 10.121318 5.878682 Z" stroke="#373151" stroke-linecap="square" stroke-linejoin="miter" stroke-width="1"/>
      </g>
      <g id="Graphic_134">
        <path d="M 10.121318 5.878682 C 10.906437 6.663797 11.165418 7.775809 10.898261 8.776587 L 14.717514 9.799953 C 15.360576 7.400016 14.674437 4.839314 12.917562 3.082438 Z" stroke="#373151" stroke-linecap="square" stroke-linejoin="miter" stroke-width="1"/>
      </g>
      <g id="Graphic_138">
        <path d="M 7.223413 5.101739 L 6.2000474 1.2824856 C 3.8001107 1.9255467 1.9255467 3.8001107 1.2824856 6.2000474 L 5.101739 7.223413 C 5.233242 6.730801 5.492223 6.265139 5.878682 5.878682 C 6.265139 5.492223 6.730801 5.233242 7.223413 5.101739 Z" stroke="#373151" stroke-linecap="square" stroke-linejoin="miter" stroke-width="1"/>
      </g>
      <g id="Graphic_137">
        <path d="M 5.101739 7.223413 L 1.2824856 6.2000474 C .6394245 8.599984 1.3255625 11.160686 3.082438 12.917562 L 5.878682 10.121318 C 5.093563 9.336203 4.834582 8.224191 5.101739 7.223413 Z" stroke="#373151" stroke-linecap="square" stroke-linejoin="miter" stroke-width="1"/>
      </g>
      <g id="Graphic_135">
        <path d="M 8.776587 10.898261 L 9.799953 14.717514 C 12.19989 14.074453 14.074453 12.19989 14.717514 9.799953 L 10.898261 8.776587 C 10.766758 9.269199 10.507777 9.734861 10.121318 10.121318 C 9.734861 10.507777 9.269199 10.766758 8.776587 10.898261 Z" stroke="#373151" stroke-linecap="square" stroke-linejoin="miter" stroke-width="1"/>
      </g>
      <g id="Graphic_136">
        <path d="M 5.878682 10.121318 L 3.082438 12.917562 C 4.839314 14.674437 7.400016 15.360576 9.799953 14.717514 L 8.776587 10.898261 C 7.775809 11.165418 6.663797 10.906437 5.878682 10.121318 Z" stroke="#373151" stroke-linecap="square" stroke-linejoin="miter" stroke-width="1"/>
      </g>
    </g>
  </g>
</svg>
