<?xml version="1.0" encoding="UTF-8" standalone="no"?>
<!DOCTYPE svg PUBLIC "-//W3C//DTD SVG 1.1//EN" "http://www.w3.org/Graphics/SVG/1.1/DTD/svg11.dtd">
<svg xmlns:dc="http://purl.org/dc/elements/1.1/" xmlns="http://www.w3.org/2000/svg" xmlns:xl="http://www.w3.org/1999/xlink" version="1.1" viewBox="0 0 48 48" width="48" height="48">
  <defs/>
  <metadata> Produced by OmniGraffle 7.19.4\n2022-02-21 23:44:34 +0000</metadata>
  <g id="favicon" fill-opacity="1" stroke="none" fill="none" stroke-opacity="1" stroke-dasharray="none">
    <title>favicon</title>
    <g id="favicon_Layer_1">
      <title>Layer 1</title>
      <g id="Graphic_92">
        <path d="M 22.451824 12.240439 C 26.511916 11.709771 30.73649 13.298537 33.40841 16.780672 L 41.453476 10.607477 C 36.66879 4.3719506 28.92094 1.1626871 21.128473 2.188585 Z" fill="#de2d32"/>
        <path d="M 22.451824 12.240439 C 26.511916 11.709771 30.73649 13.298537 33.40841 16.780672 L 41.453476 10.607477 C 36.66879 4.3719506 28.92094 1.1626871 21.128473 2.188585 Z" stroke="#373151" stroke-linecap="square" stroke-linejoin="miter" stroke-width="1.1678278"/>
      </g>
      <g id="Graphic_93">
        <path d="M 33.40841 16.780672 C 36.08035 20.262794 36.52158 24.75462 34.958166 28.53902 L 44.325003 32.418892 C 47.332784 25.157468 46.238164 16.843003 41.453476 10.607477 Z" fill="#ff7201"/>
        <path d="M 33.40841 16.780672 C 36.08035 20.262794 36.52158 24.75462 34.958166 28.53902 L 44.325003 32.418892 C 47.332784 25.157468 46.238164 16.843003 41.453476 10.607477 Z" stroke="#373151" stroke-linecap="square" stroke-linejoin="miter" stroke-width="1.1678278"/>
      </g>
      <g id="Graphic_97">
        <path d="M 22.451824 12.240439 L 21.128473 2.188585 C 13.336005 3.214483 6.682777 8.319684 3.674997 15.581108 L 13.041834 19.460979 C 13.811394 17.598183 15.06666 15.90679 16.780672 14.591589 C 18.494677 13.27638 20.453325 12.50165 22.451824 12.240439 Z" fill="#b81ddd"/>
        <path d="M 22.451824 12.240439 L 21.128473 2.188585 C 13.336005 3.214483 6.682777 8.319684 3.674997 15.581108 L 13.041834 19.460979 C 13.811394 17.598183 15.06666 15.90679 16.780672 14.591589 C 18.494677 13.27638 20.453325 12.50165 22.451824 12.240439 Z" stroke="#373151" stroke-linecap="square" stroke-linejoin="miter" stroke-width="1.1678278"/>
      </g>
      <g id="Graphic_96">
        <path d="M 13.041834 19.460979 L 3.674997 15.581108 C .66721645 22.842532 1.7618365 31.156997 6.546524 37.392523 L 14.591589 31.219328 C 11.919649 27.737206 11.478419 23.24538 13.041834 19.460979 Z" fill="#0778ff"/>
        <path d="M 13.041834 19.460979 L 3.674997 15.581108 C .66721645 22.842532 1.7618365 31.156997 6.546524 37.392523 L 14.591589 31.219328 C 11.919649 27.737206 11.478419 23.24538 13.041834 19.460979 Z" stroke="#373151" stroke-linecap="square" stroke-linejoin="miter" stroke-width="1.1678278"/>
      </g>
      <g id="Graphic_94">
        <path d="M 25.548176 35.75956 L 26.871527 45.811415 C 34.663995 44.785517 41.317223 39.680316 44.325003 32.418892 L 34.958166 28.53902 C 34.188606 30.401817 32.93334 32.09321 31.219328 33.40841 C 29.505323 34.72362 27.546675 35.49835 25.548176 35.75956 Z" fill="#fccf1f"/>
        <path d="M 25.548176 35.75956 L 26.871527 45.811415 C 34.663995 44.785517 41.317223 39.680316 44.325003 32.418892 L 34.958166 28.53902 C 34.188606 30.401817 32.93334 32.09321 31.219328 33.40841 C 29.505323 34.72362 27.546675 35.49835 25.548176 35.75956 Z" stroke="#373151" stroke-linecap="square" stroke-linejoin="miter" stroke-width="1.1678278"/>
      </g>
      <g id="Graphic_95">
        <path d="M 14.591589 31.219328 L 6.546524 37.392523 C 11.331212 43.62805 19.07906 46.837313 26.871527 45.811415 L 25.548176 35.75956 C 21.488084 36.29023 17.263511 34.701463 14.591589 31.219328 Z" fill="#00ba5d"/>
        <path d="M 14.591589 31.219328 L 6.546524 37.392523 C 11.331212 43.62805 19.07906 46.837313 26.871527 45.811415 L 25.548176 35.75956 C 21.488084 36.29023 17.263511 34.701463 14.591589 31.219328 Z" stroke="#373151" stroke-linecap="square" stroke-linejoin="miter" stroke-width="1.1678278"/>
      </g>
    </g>
  </g>
</svg>
